<?xml version="1.0" encoding="UTF-8" standalone="no"?>
<svg
   viewBox="0 0 640 640"
   version="1.1"
   id="svg1"
   sodipodi:docname="favicon.svg"
   inkscape:version="1.4.2 (ebf0e940, 2025-05-08)"
   width="640"
   height="640"
   xml:space="preserve"
   xmlns:inkscape="http://www.inkscape.org/namespaces/inkscape"
   xmlns:sodipodi="http://sodipodi.sourceforge.net/DTD/sodipodi-0.dtd"
   xmlns="http://www.w3.org/2000/svg"
   xmlns:svg="http://www.w3.org/2000/svg"><defs
     id="defs1" /><sodipodi:namedview
     id="namedview1"
     pagecolor="#ffffff"
     bordercolor="#666666"
     borderopacity="1.0"
     inkscape:showpageshadow="2"
     inkscape:pageopacity="0.0"
     inkscape:pagecheckerboard="0"
     inkscape:deskcolor="#d1d1d1"
     inkscape:zoom="0.66647177"
     inkscape:cx="171.05001"
     inkscape:cy="236.31909"
     inkscape:window-width="1472"
     inkscape:window-height="890"
     inkscape:window-x="0"
     inkscape:window-y="38"
     inkscape:window-maximized="1"
     inkscape:current-layer="svg1" /><!--!Font Awesome Free 6.7.2 by @fontawesome - https://fontawesome.com License - https://fontawesome.com/license/free Copyright 2025 Fonticons, Inc.--><g
     inkscape:groupmode="layer"
     id="layer1"
     inkscape:label="Layer 1"
     style="fill:#000000" /><rect
     style="fill:#000000;fill-opacity:1;stroke:#000000;stroke-width:0.327147;stroke-linecap:round;stroke-linejoin:round;paint-order:stroke fill markers"
     id="rect1"
     width="653.62433"
     height="649.41791"
     x="-7.21807"
     y="-3.6022482" /><path
     fill="#ffffff"
     d="m 131.79662,116.37773 c 0,-18.771429 14.01724,-33.937047 31.36724,-33.937047 H 320 c 17.35,0 31.36724,15.165618 31.36724,33.937047 v 373.30751 h 94.1017 V 320.00001 c 0,-18.77143 14.01723,-33.93705 31.36723,-33.93705 h 125.46892 c 17.35,0 31.36723,15.16562 31.36723,33.93705 0,18.77143 -14.01723,33.93704 -31.36723,33.93704 h -94.1017 v 169.68523 c 0,18.77143 -14.01722,33.93704 -31.36722,33.93704 H 320 c -17.35,0 -31.36723,-15.16561 -31.36723,-33.93704 v -373.3075 h -94.1017 v 169.68523 c 0,18.77143 -14.01721,33.93704 -31.36721,33.93704 H 37.694915 c -17.35,0 -31.3672313,-15.16561 -31.3672313,-33.93704 0,-18.77143 14.0172313,-33.93705 31.3672313,-33.93705 h 94.101705 z"
     id="path1"
     style="display:inline;stroke-width:1.01959" /></svg>
